<svg width="252" height="180" viewBox="0 0 252 180" fill="none" xmlns="http://www.w3.org/2000/svg">
<g clip-path="url(#clip0_6:139)">
<path d="M159.235 0.323975C159.235 0.485962 155.726 20.6263 151.406 45.1404C147.086 69.6544 143.577 89.7948 143.577 89.9568C143.577 90.0648 146.572 94.5 151 94.5C155.482 94.5 159.775 89.9568 159.775 89.6868C159.775 89.2009 174.678 4.10369 175.218 1.4579L175.542 1.52588e-05H167.389C162.907 1.52588e-05 159.235 0.161988 159.235 0.323975Z" fill="#41414D"/>
<path d="M143.469 90.0108C143.469 90.1728 139.959 110.313 135.639 134.827C131.32 159.341 127.81 179.482 127.81 179.644C127.81 179.752 131.482 179.86 135.909 179.86C140.391 179.86 144.009 179.644 144.009 179.374C144.009 178.888 158.911 93.7905 159.451 91.1447L159.775 89.6868L153 83.5C148.518 83.5 143.469 89.8488 143.469 90.0108Z" fill="#41414D"/>
<path d="M125.57 158.381C125.41 158.354 104.967 158.393 80.075 158.488C55.1835 158.583 32.9394 156.411 32.7797 156.383C32.6733 156.365 34.9905 154.94 35.7422 150.577C36.5031 146.16 92.6404 142.301 92.9064 142.347C93.3853 142.43 124.467 142.521 127.166 142.438L128.658 142.366L127.274 150.401C126.513 154.818 125.73 158.409 125.57 158.381Z" fill="#41414D"/>
<path d="M91.2029 158.337C91.0433 158.31 70.5994 158.349 45.7079 158.444C20.8164 158.539 0.372483 158.579 0.212847 158.551C0.106424 158.533 0.623364 154.896 1.37507 150.533C2.13594 146.116 2.96298 142.588 3.22904 142.633C3.70795 142.716 90.2074 142.43 92.9064 142.347L92.9064 150.357C92.1456 154.774 91.3626 158.365 91.2029 158.337Z" fill="#41414D"/>
<path d="M235.291 143.63C235.131 143.603 214.687 143.642 189.796 143.737C164.904 143.832 170.378 135.853 170.218 135.826C169.466 140.189 170.111 135.807 170.218 135.826C170.979 131.409 207.441 127.557 207.707 127.603C208.186 127.686 236.042 127.77 238.741 127.687L240.233 127.615L237.961 138.769C236.881 143.63 237.421 143.63 235.291 143.63Z" fill="#41414D"/>
<path d="M235.291 143.63C235.131 143.603 214.687 143.642 189.796 143.737C164.904 143.832 156.566 143.759 156.406 143.731C156.3 143.713 156.817 140.076 157.569 135.713C158.33 131.296 159.157 127.768 159.423 127.814C159.902 127.896 205.008 127.686 207.707 127.603L223.418 135.621C223.418 135.621 227.162 137.959 235.291 143.63Z" fill="#41414D"/>
<path d="M18.8582 74.0259C16.2664 75.2138 14.5926 76.9417 13.5127 79.5335C12.7027 81.4773 8.86903 101.942 8.86903 104.371C8.86903 106.207 10.7049 108.961 12.5947 109.987C13.8366 110.581 15.9965 110.797 21.72 110.797C27.6055 110.797 29.3874 110.959 29.8733 111.553C30.7913 112.633 29.1714 121.596 27.9295 122.568C26.9036 123.324 23.5559 123.432 22.4219 122.73C21.882 122.406 21.828 121.596 22.098 119.49L22.4759 116.683L14.4846 116.844L6.43922 117.006L5.5213 121.866C3.73944 131.261 4.27939 134.609 8.0051 136.391C9.51698 137.093 11.8928 137.255 22.4759 137.255C36.6228 137.255 37.9187 136.985 41.1044 133.313C43.2643 130.829 43.6422 129.695 45.5861 117.978C47.4219 106.909 47.5299 104.371 46.396 102.158C44.9921 99.4039 43.2643 98.9179 34.9489 98.9179C30.8453 98.9179 27.1736 98.7019 26.7416 98.432C26.0397 98 26.0397 97.2441 26.7956 92.9784C27.2816 90.2786 27.9835 87.6868 28.3075 87.2549C29.1714 86.2289 33.3831 86.2289 34.247 87.3089C34.733 87.8488 34.733 88.7128 34.355 90.5486L33.815 92.9784H41.8604C48.9878 92.9784 49.8517 92.8704 50.1217 92.0065C51.0397 88.6588 52.1736 79.8575 51.8496 78.2376C51.6336 76.9957 50.8237 75.6998 49.5818 74.6739L47.6919 73H34.355C22.5299 73 20.7481 73.162 18.8582 74.0259Z" fill="#E02041"/>
<path d="M62.5855 74.0259C59.9937 75.2138 58.3198 76.9417 57.2399 79.5335C56.214 81.9633 48.2766 127.32 48.2766 130.721C48.2766 133.907 49.6805 135.905 52.4883 136.769C53.7842 137.147 59.0757 137.255 67.4991 137.147L80.512 136.985L82.7259 135.473C83.9678 134.663 85.4796 133.043 86.1276 131.801C87.0455 129.965 89.8533 116.737 89.8533 114.199C89.8533 113.605 88.2334 113.497 81.9159 113.605L73.9246 113.767L73.2766 117.492C72.8986 119.544 72.3047 121.542 71.9807 121.92C71.1708 122.946 66.1492 122.946 65.7712 121.974C65.4472 121.11 70.6848 90.6026 71.4948 88.8207C72.0347 87.5248 74.9505 86.7149 76.8943 87.3089C78.0282 87.6868 78.0822 87.9028 77.7583 91.1426C77.5423 93.0324 77.2723 94.9762 77.1103 95.4082C76.8403 96.1102 77.8663 96.2181 84.8857 96.2181H93.039L93.579 93.3564C95.0909 85.851 95.8468 79.8035 95.5768 78.1296C95.3609 76.9957 94.4969 75.6998 93.309 74.6739L91.4192 73H78.0822C66.2572 73 64.4753 73.162 62.5855 74.0259Z" fill="#E02041"/>
<path d="M106.09 74.1339C102.58 75.8618 101.23 78.3456 99.9883 85.203C98.4224 93.8963 97.6665 93.0324 106.9 92.8704L114.837 92.7084L115.269 90.2786C115.755 87.4169 116.781 86.4989 119.535 86.4989C122.666 86.4989 122.936 87.2009 121.803 93.3564L120.831 98.648L111.921 98.9179C103.714 99.1879 102.85 99.2959 100.96 100.484C97.1805 102.806 96.4786 104.587 94.3727 116.737C92.2669 128.994 92.1049 131.747 93.2928 133.961C94.5347 136.445 97.0185 137.255 103.12 137.255C108.358 137.255 112.245 136.229 113.217 134.609C113.973 133.421 114.567 134.069 114.297 135.635L113.973 137.255H122.019H130.064L135.032 109.015C137.785 93.5184 140.053 80.2354 139.999 79.4795C139.999 77.5356 138.163 74.8359 136.273 73.8099C134.924 73.162 132.332 73 121.533 73C109.222 73 108.25 73.054 106.09 74.1339ZM118.401 111.877C118.401 112.741 117.915 115.495 116.997 119.814C116.619 121.812 114.675 123.216 112.353 123.216C111.111 123.216 110.139 122.946 109.977 122.46C109.438 121.11 111.327 112.201 112.299 111.445C112.785 111.121 114.351 110.797 115.809 110.797C118.023 110.797 118.401 110.959 118.401 111.877Z" fill="#E02041"/>
<path d="M175.596 59.3416C173.004 60.5295 171.33 62.2573 170.251 64.8491C169.225 67.2789 161.287 112.635 161.287 116.037C161.287 119.223 162.691 121.221 165.499 122.085C166.795 122.463 172.086 122.571 180.51 122.463L193.523 122.301L195.736 120.789C196.978 119.979 198.49 118.359 199.084 117.171C200.056 115.281 202.324 105.076 202.324 102.754C202.324 102.16 200.704 102.052 194.387 102.16L186.449 102.322L185.963 104.752C185.693 106.102 185.207 107.506 184.937 107.884C184.289 108.64 179.322 108.748 178.836 107.992C178.62 107.668 178.89 104.86 179.43 101.782L180.348 96.1126H191.849C202.324 96.1126 203.35 96.0046 203.62 95.1407C204.754 91.361 208.857 65.0651 208.587 63.4992C208.371 62.3113 207.508 61.0154 206.32 59.9895L204.43 58.3157H191.093C179.268 58.3157 177.486 58.4776 175.596 59.3416ZM190.931 72.5165C191.363 73.0565 191.255 74.6764 190.553 78.618L189.635 83.9636L186.287 84.1256C182.993 84.2876 182.886 84.2336 182.886 82.9377C182.886 79.9679 184.559 73.1645 185.423 72.4625C186.611 71.5986 190.175 71.5986 190.931 72.5165Z" fill="#E02041"/>
<path d="M218.802 59.3416C216.21 60.5295 214.536 62.2574 213.457 64.8491C212.647 66.793 208.813 87.2573 208.813 89.6872C208.813 91.523 210.649 94.2768 212.539 95.3027C213.78 95.8967 215.94 96.1126 221.664 96.1126C227.549 96.1126 229.331 96.2746 229.817 96.8686C230.735 97.9485 229.115 106.912 227.873 107.884C226.847 108.64 223.5 108.748 222.366 108.046C221.826 107.722 221.772 106.912 222.042 104.806L222.42 101.998L214.428 102.16L206.383 102.322L205.465 107.182C203.683 116.577 204.223 119.925 207.949 121.707C209.461 122.409 211.837 122.571 222.42 122.571C236.567 122.571 237.863 122.301 241.048 118.629C243.208 116.145 243.586 115.011 245.53 103.294C247.366 92.225 247.474 89.6872 246.34 87.4733C244.936 84.7196 243.208 84.2336 234.893 84.2336C230.789 84.2336 227.117 84.0176 226.685 83.7476C225.983 83.3157 225.983 82.5597 226.739 78.2941C227.225 75.5943 227.927 73.0025 228.251 72.5705C229.115 71.5446 233.327 71.5446 234.191 72.6245C234.677 73.1645 234.677 74.0284 234.299 75.8643L233.759 78.2941H241.804C248.932 78.2941 249.796 78.1861 250.066 77.3221C250.983 73.9744 252.117 65.1731 251.793 63.5532C251.577 62.3113 250.768 61.0155 249.526 59.9895L247.636 58.3157H234.299C222.474 58.3157 220.692 58.4777 218.802 59.3416Z" fill="#E02041"/>
<line x1="152.163" y1="5.34996" x2="23.8641" y2="66.8037" stroke="#41414D" stroke-width="4"/>
<line x1="151.966" y1="4.36859" x2="139.966" y2="68.3686" stroke="#41414D" stroke-width="4"/>
<path d="M151.5 7.5L84 65.5" stroke="#41414D" stroke-width="4"/>
<path d="M154.494 1.98383L152.998 9.24465L134.5 11.5L154.494 1.98383Z" fill="#41414D"/>
<line x1="182.224" y1="5.41818" x2="242.965" y2="52.4139" stroke="#41414D" stroke-width="4"/>
<line x1="182.163" y1="4.62054" x2="174.604" y2="54.2966" stroke="#41414D" stroke-width="4"/>
<line x1="182.701" y1="7.94869" x2="210.505" y2="52.9444" stroke="#41414D" stroke-width="4"/>
<path d="M180.431 1.54015L194.5 12.5L179.646 7.82938L180.431 1.54015Z" fill="#41414D"/>
</g>
<defs>
<clipPath id="clip0_6:139">
<rect width="252" height="180" fill="white"/>
</clipPath>
</defs>
</svg>
